<?xml version="1.0" encoding="UTF-8"?>
<svg id="Layer_1" data-name="Layer 1" xmlns="http://www.w3.org/2000/svg" viewBox="0 0 194.41 95.03">
  <defs>
    <style>
      .cls-1 {
        fill: #fff;
      }

      .cls-1, .cls-2, .cls-3 {
        stroke: #231f20;
        stroke-miterlimit: 10;
        stroke-width: 2px;
      }

      .cls-2 {
        fill: #65bdea;
      }

      .cls-4 {
        fill: #a3ddf8;
      }

      .cls-5 {
        fill: #6b96ce;
      }

      .cls-3 {
        fill: none;
      }

      .cls-6 {
        fill: #231f20;
      }
    </style>
  </defs>
  <g>
    <path class="cls-2" d="m164.03,4.63c-3.72-1.51-7.67-2.57-11.79-3.11-2.09-.28-4.23-.42-6.41-.42-.3,0-.6,0-.9.01h-.29s-74.46-.01-74.46-.01c-4.28,0-7.76,3.4-7.76,7.58s3.48,7.58,7.76,7.58h4.2c.88,0,1.74.14,2.55.42,2.83.98,4.73,3.51,4.73,6.3,0,3.71-3.27,6.72-7.28,6.72h-17.52c-.22,0-.47-.01-.72-.04-.82-.07-1.61-.27-2.35-.59-.24-.02-.5-.03-.76-.03h-12.48c-4.14,0-7.51,3.28-7.51,7.33s3.37,7.33,7.51,7.33h1.25c.54-.12,1.1-.19,1.66-.19h17.86c3.92,0,7.11,3.12,7.11,6.94,0,3.18-2.2,5.94-5.35,6.73-.56.15-1.16.21-1.76.21h-17.86c-.57,0-1.14-.06-1.68-.2h-18.54c-2.78,0-5.04,2.21-5.04,4.92v1.76c0,2.71,2.26,4.92,5.04,4.92h1.06c.63-.26,1.3-.39,1.99-.39h20.77c.73,0,1.44.15,2.11.44,2.15.94,3.54,3.16,3.54,5.67s-1.39,4.74-3.55,5.67c-.67.3-1.38.44-2.11.44h-4.55c-3.78,0-6.86,3.01-6.86,6.7s3.08,6.7,6.86,6.7h103.32c26.24,0,47.58-20.85,47.58-46.47,0-19.33-12.15-35.94-29.38-42.93Zm-71.14,74.6c-.94,1.07-2.25,1.74-3.68,1.74h-24.52c-2.86,0-5.21-2.67-5.21-5.93,0-1.63.59-3.11,1.53-4.19.94-1.07,2.25-1.74,3.68-1.74h24.52c2.86,0,5.21,2.67,5.21,5.93,0,1.63-.59,3.11-1.53,4.18Zm8.91-24.52c-.94,1.07-2.25,1.74-3.68,1.74h-12.04c-2.86,0-5.21-2.67-5.21-5.93,0-1.63.59-3.11,1.53-4.19.94-1.07,2.25-1.74,3.68-1.74h12.04c2.87,0,5.21,2.67,5.21,5.93,0,1.63-.59,3.11-1.53,4.18Z"/>
    <circle class="cls-2" cx="8" cy="8.49" r="7"/>
    <circle class="cls-2" cx="14.52" cy="35.55" r="6.52"/>
    <rect class="cls-2" x="24.14" y="1" width="30.35" height="14.98" rx="7.49" ry="7.49"/>
    <rect class="cls-2" x="4.43" y="80.14" width="21.12" height="11.51" rx="5.76" ry="5.76"/>
  </g>
  <g>
    <circle class="cls-1" cx="146.77" cy="47.79" r="30.05"/>
    <polygon class="cls-5" points="146.04 49.67 151.99 48.1 158.39 44.84 164.28 41.68 169.97 40.01 174.85 40.09 176.23 40.84 176.82 49.67 175.76 55.72 173.77 56.51 163.69 56.78 155.6 55.72 147.5 51.81 146.04 49.67"/>
    <polygon class="cls-4" points="116.77 46.05 119.82 44.84 126.05 42.77 130.88 42.77 136.42 43.62 142.86 47.79 147.5 52.5 153.23 55 156.52 56.24 164.28 56.88 171.36 56.88 175.76 55.72 174.85 58.5 171.19 65.3 165.9 70.99 159.32 75.1 153.49 77.09 144.96 77.84 139.1 76.85 131.68 73.78 125.67 69.19 120.85 63.01 117.65 55.25 116.77 46.05"/>
    <circle class="cls-3" cx="146.77" cy="47.79" r="30.05"/>
    <line class="cls-3" x1="118.98" y1="47.06" x2="123.57" y2="47.06"/>
    <line class="cls-3" x1="126.6" y1="66.92" x2="129.85" y2="63.68"/>
    <line class="cls-3" x1="146.04" y1="75.58" x2="146.04" y2="70.99"/>
    <line class="cls-3" x1="165.9" y1="67.96" x2="162.66" y2="64.71"/>
    <line class="cls-3" x1="174.56" y1="48.52" x2="169.97" y2="48.52"/>
    <line class="cls-3" x1="166.94" y1="28.66" x2="163.69" y2="31.9"/>
    <line class="cls-3" x1="147.5" y1="20" x2="147.5" y2="24.59"/>
    <line class="cls-3" x1="127.64" y1="27.62" x2="130.88" y2="30.87"/>
    <path class="cls-6" d="m118.28,46.49c3.7-1.7,7.74-2.84,11.83-2.79s7.73,1.56,10.9,4.16,5.7,5.38,9.2,7.18,7.39,2.55,11.28,2.86c2.26.18,4.52.22,6.78.23s4.68.03,6.91-.74c1.51-.52.86-2.94-.66-2.41-2.03.7-4.13.66-6.24.65s-4.1-.04-6.15-.18c-4.07-.28-8.21-1.06-11.75-3.18s-5.98-5.04-9.12-7.37-6.95-3.6-10.93-3.7c-4.61-.11-9.14,1.22-13.3,3.13-1.46.67-.19,2.83,1.26,2.16h0Z"/>
    <path class="cls-6" d="m175.53,38.88c-2.87-.15-5.8-.27-8.61.49-2.57.69-4.94,2.02-7.25,3.31-4.59,2.58-9.28,5.61-14.72,5.75-1.61.04-1.61,2.54,0,2.5,5.32-.14,9.99-2.69,14.51-5.25,2.29-1.3,4.6-2.71,7.1-3.57,2.91-1,5.94-.88,8.97-.72,1.61.08,1.6-2.42,0-2.5h0Z"/>
  </g>
</svg>